<svg xmlns="http://www.w3.org/2000/svg" width="12.402" height="15.517" viewBox="0 0 12.402 15.517">
  <g id="Group_1397" data-name="Group 1397" transform="translate(38.75 -156.25)">
    <path id="Path_5008" data-name="Path 5008" d="M8.115,5H6.557A1.557,1.557,0,0,0,5,6.557V15.9A1.557,1.557,0,0,0,6.557,17.46h7.787A1.557,1.557,0,0,0,15.9,15.9V6.557A1.557,1.557,0,0,0,14.345,5H12.787" transform="translate(-43 153.557)" fill="none" stroke="#fff" stroke-linecap="round" stroke-linejoin="round" stroke-width="1.5"/>
    <path id="Path_5009" data-name="Path 5009" d="M9,3,9,4.557A1.557,1.557,0,0,1,10.557,3h1.557a1.557,1.557,0,0,1,1.557,1.557h0a1.557,1.557,0,0,1-1.557,1.557H10.557A1.557,1.557,0,0,1,9,4.557Z" transform="translate(-43.885 154)" fill="none" stroke="#fff" stroke-linecap="round" stroke-linejoin="round" stroke-width="1.5"/>
    <path id="Path_5010" data-name="Path 5010" d="M9,16.115V13" transform="translate(-43.885 151.787)" fill="none" stroke="#fff" stroke-linecap="round" stroke-linejoin="round" stroke-width="1.5"/>
    <path id="Path_5011" data-name="Path 5011" d="M12,16.779V16" transform="translate(-44.549 151.123)" fill="none" stroke="#fff" stroke-linecap="round" stroke-linejoin="round" stroke-width="1.5"/>
    <path id="Path_5012" data-name="Path 5012" d="M15,16.557V15" transform="translate(-45.213 151.345)" fill="none" stroke="#fff" stroke-linecap="round" stroke-linejoin="round" stroke-width="1.5"/>
    <path id="Path_5013" data-name="Path 5013" d="M12,16.779V16" transform="translate(-44.549 151.123)" fill="none" stroke="#fff" stroke-linecap="round" stroke-linejoin="round" stroke-width="1.5"/>
  </g>
</svg>