<svg xmlns="http://www.w3.org/2000/svg" width="16.111" height="18" viewBox="0 0 16.111 18">
  <g id="Group_171" data-name="Group 171" transform="translate(-5213.5 -783.5)">
    <path id="Path_4967" data-name="Path 4967" d="M4,7H19.111" transform="translate(5210 780.778)" fill="none" stroke="#f7901d" stroke-linecap="round" stroke-linejoin="round" stroke-width="1"/>
    <path id="Path_4968" data-name="Path 4968" d="M10,11v5.667" transform="translate(5209.667 780.556)" fill="none" stroke="#f7901d" stroke-linecap="round" stroke-linejoin="round" stroke-width="1"/>
    <path id="Path_4969" data-name="Path 4969" d="M14,11v5.667" transform="translate(5209.444 780.556)" fill="none" stroke="#f7901d" stroke-linecap="round" stroke-linejoin="round" stroke-width="1"/>
    <path id="Path_4970" data-name="Path 4970" d="M5,7l.944,11.333a1.889,1.889,0,0,0,1.889,1.889h7.556a1.889,1.889,0,0,0,1.889-1.889L18.222,7" transform="translate(5209.944 780.778)" fill="none" stroke="#f7901d" stroke-linecap="round" stroke-linejoin="round" stroke-width="1"/>
    <path id="Path_4971" data-name="Path 4971" d="M9,6.778V3.944A.944.944,0,0,1,9.944,3h3.778a.944.944,0,0,1,.944.944V6.778" transform="translate(5209.722 781)" fill="none" stroke="#f7901d" stroke-linecap="round" stroke-linejoin="round" stroke-width="1"/>
  </g>
</svg>
