<svg xmlns="http://www.w3.org/2000/svg" width="11.92" height="15.04" viewBox="0 0 11.92 15.04">
  <g id="Group_1400" data-name="Group 1400" transform="translate(39.5 -180.5)">
    <path id="Path_5025" data-name="Path 5025" d="M11.56,13.56m-1.56,0A1.56,1.56,0,1,0,11.56,12,1.56,1.56,0,0,0,10,13.56" transform="translate(-45.1 176.02)" fill="none" stroke="#F7901D" stroke-linecap="round" stroke-linejoin="round" stroke-width="1"/>
    <path id="Path_5026" data-name="Path 5026" d="M12,10.5v1.17" transform="translate(-45.54 176.35)" fill="none" stroke="#F7901D" stroke-linecap="round" stroke-linejoin="round" stroke-width="1"/>
    <path id="Path_5027" data-name="Path 5027" d="M12,16v1.17" transform="translate(-45.54 175.14)" fill="none" stroke="#F7901D" stroke-linecap="round" stroke-linejoin="round" stroke-width="1"/>
    <path id="Path_5028" data-name="Path 5028" d="M14.745,12.25l-1.013.585" transform="translate(-45.921 175.965)" fill="none" stroke="#F7901D" stroke-linecap="round" stroke-linejoin="round" stroke-width="1"/>
    <path id="Path_5029" data-name="Path 5029" d="M9.982,15l-1.014.585" transform="translate(-44.873 175.36)" fill="none" stroke="#F7901D" stroke-linecap="round" stroke-linejoin="round" stroke-width="1"/>
    <path id="Path_5030" data-name="Path 5030" d="M14.717,15.633l-1-.6" transform="translate(-45.918 175.353)" fill="none" stroke="#F7901D" stroke-linecap="round" stroke-linejoin="round" stroke-width="1"/>
    <path id="Path_5031" data-name="Path 5031" d="M10,12.8l-1-.6" transform="translate(-44.88 175.976)" fill="none" stroke="#F7901D" stroke-linecap="round" stroke-linejoin="round" stroke-width="1"/>
    <path id="Path_5032" data-name="Path 5032" d="M14,3V6.12a.78.78,0,0,0,.78.78H17.9" transform="translate(-45.98 178)" fill="#F7901D" stroke="#F7901D" stroke-linecap="round" stroke-linejoin="round" stroke-width="1"/>
    <path id="Path_5033" data-name="Path 5033" d="M14.36,17.04H6.56A1.56,1.56,0,0,1,5,15.48V4.56A1.56,1.56,0,0,1,6.56,3h5.46l3.9,3.9v8.58A1.56,1.56,0,0,1,14.36,17.04Z" transform="translate(-44 178)" fill="none" stroke="#F7901D" stroke-linecap="round" stroke-linejoin="round" stroke-width="1"/>
  </g>
</svg>