<svg xmlns="http://www.w3.org/2000/svg" width="15" height="15" viewBox="0 0 15 15">
  <g id="Group_1401" data-name="Group 1401" transform="translate(61.5 -546.5)">
    <path id="Path_5043" data-name="Path 5043" d="M8.7,4.024a1.341,1.341,0,0,1,2.606,0,1.341,1.341,0,0,0,2,.829A1.341,1.341,0,0,1,15.147,6.7a1.341,1.341,0,0,0,.828,2,1.341,1.341,0,0,1,0,2.606,1.341,1.341,0,0,0-.829,2A1.341,1.341,0,0,1,13.3,15.147a1.341,1.341,0,0,0-2,.828,1.341,1.341,0,0,1-2.606,0,1.341,1.341,0,0,0-2-.829A1.341,1.341,0,0,1,4.853,13.3a1.341,1.341,0,0,0-.828-2,1.341,1.341,0,0,1,0-2.606,1.341,1.341,0,0,0,.829-2A1.341,1.341,0,0,1,6.7,4.853a1.34,1.34,0,0,0,2-.828Z" transform="translate(-64 544)" fill="none" stroke="#F7901D" stroke-linecap="round" stroke-linejoin="round" stroke-width="1"/>
    <path id="Path_5044" data-name="Path 5044" d="M9,11.333A2.333,2.333,0,1,0,11.333,9,2.333,2.333,0,0,0,9,11.333" transform="translate(-65.333 542.667)" fill="none" stroke="#F7901D" stroke-linecap="round" stroke-linejoin="round" stroke-width="1"/>
  </g>
</svg>