<svg xmlns="http://www.w3.org/2000/svg" width="15.105" height="15.105" viewBox="0 0 15.105 15.105">
  <g id="Group_1402" data-name="Group 1402" transform="translate(40.506 -627.494)">
    <path id="Path_5035" data-name="Path 5035" d="M9.611,2.116,13.539,3.8a1.439,1.439,0,0,1,.754.754l1.683,3.927a1.431,1.431,0,0,1,0,1.13l-1.683,3.928a1.439,1.439,0,0,1-.754.754L9.611,15.975a1.431,1.431,0,0,1-1.13,0L4.553,14.292a1.435,1.435,0,0,1-.754-.754L2.116,9.611a1.435,1.435,0,0,1,0-1.13L3.8,4.553A1.439,1.439,0,0,1,4.553,3.8L8.481,2.116a1.435,1.435,0,0,1,1.13,0Z" transform="translate(-42 626)" fill="none" stroke="#fff" stroke-linecap="round" stroke-linejoin="round" stroke-width="1"/>
    <path id="Path_5036" data-name="Path 5036" d="M12,16v.007" transform="translate(-44.954 621.864)" fill="none" stroke="#fff" stroke-linecap="round" stroke-linejoin="round" stroke-width="1"/>
    <path id="Path_5037" data-name="Path 5037" d="M11.557,11.818A1.409,1.409,0,0,0,12.2,9.154a1.4,1.4,0,0,0-1.7.34" transform="translate(-44.511 623.932)" fill="none" stroke="#fff" stroke-linecap="round" stroke-linejoin="round" stroke-width="1"/>
  </g>
</svg>
