<svg xmlns="http://www.w3.org/2000/svg" width="15.032" height="15.032" viewBox="0 0 15.032 15.032">
  <g id="Group_1399" data-name="Group 1399" transform="translate(24.5 -182.5)">
    <path id="Path_5022" data-name="Path 5022" d="M17.647,8.235a1.754,1.754,0,0,1,.877,1.519V16.77a1.754,1.754,0,0,1-1.754,1.754H9.754A1.754,1.754,0,0,1,8,16.77V9.754A1.754,1.754,0,0,1,9.754,8h2.631" transform="translate(-28.492 178.508)" fill="none" stroke="#F7901D" stroke-linecap="round" stroke-linejoin="round" stroke-width="1"/>
    <path id="Path_5023" data-name="Path 5023" d="M4.877,14.291A1.754,1.754,0,0,1,4,12.77V5.754A1.754,1.754,0,0,1,5.754,4H12.77a1.754,1.754,0,0,1,1.754,1.754V12.77a1.754,1.754,0,0,1-1.754,1.754H10.139" transform="translate(-28 179)" fill="none" stroke="#F7901D" stroke-linecap="round" stroke-linejoin="round" stroke-width="1"/>
  </g>
</svg>