<svg xmlns="http://www.w3.org/2000/svg" width="15.657" height="15.588" viewBox="0 0 15.657 15.588">
  <g id="Group_1398" data-name="Group 1398" transform="translate(32.74 -154.325)">
    <path id="Path_5015" data-name="Path 5015" d="M9.468,20.569a7.025,7.025,0,0,1-1.948-.761" transform="translate(-35.942 148.445)" fill="none" stroke="#f7901d" stroke-linecap="round" stroke-linejoin="round" stroke-width="1.5"/>
    <path id="Path_5016" data-name="Path 5016" d="M14,3.223a7.073,7.073,0,0,1,0,13.791" transform="translate(-37.331 152)" fill="none" stroke="#f7901d" stroke-linecap="round" stroke-linejoin="round" stroke-width="1.5"/>
    <path id="Path_5017" data-name="Path 5017" d="M4.316,16.537A7.04,7.04,0,0,1,3.352,14.5" transform="translate(-35.049 149.583)" fill="none" stroke="#f7901d" stroke-linecap="round" stroke-linejoin="round" stroke-width="1.5"/>
    <path id="Path_5018" data-name="Path 5018" d="M3.124,9.861a7.052,7.052,0,0,1,.707-2.1l.133-.24" transform="translate(-35 151.079)" fill="none" stroke="#f7901d" stroke-linecap="round" stroke-linejoin="round" stroke-width="1.5"/>
    <path id="Path_5019" data-name="Path 5019" d="M6.907,4.288a7.035,7.035,0,0,1,2.43-1.065" transform="translate(-35.811 152)" fill="none" stroke="#f7901d" stroke-linecap="round" stroke-linejoin="round" stroke-width="1.5"/>
    <path id="Path_5020" data-name="Path 5020" d="M12,8v3.143L14.357,13.5" transform="translate(-36.902 150.976)" fill="#F7901D" stroke="#f7901d" stroke-linecap="round" stroke-linejoin="round" stroke-width="1.5"/>
  </g>
</svg>
