<svg xmlns="http://www.w3.org/2000/svg" width="20.643" height="23.5" viewBox="0 0 20.643 23.5">
  <path id="Path_1" data-name="Path 1" d="M10.936,23.118H5.911a1.294,1.294,0,0,1-1.156-1.873L5.86,19.034a5.173,5.173,0,0,0,.546-2.314V12.765C6.407,10.176,7.7,5,14.172,5s7.765,5.176,7.765,7.765V16.72a5.173,5.173,0,0,0,.547,2.314l1.105,2.211a1.294,1.294,0,0,1-1.157,1.873H17.407m-6.471,0c0,2.588,1.294,3.882,3.235,3.882s3.235-1.294,3.235-3.882m-6.471,0h6.471" transform="translate(-3.85 -4.25)" fill="none" stroke="#707070" stroke-linejoin="round" stroke-width="1.5"/>
</svg>
