<?xml version="1.0" encoding="utf-8"?>

<!-- Uploaded to: SVG Repo, www.svgrepo.com, Generator: SVG Repo Mixer Tools -->
<svg width="800px" height="800px" viewBox="0 -5.98 72.439 72.439" xmlns="http://www.w3.org/2000/svg">
  <g id="remove_folder" data-name="remove folder" transform="translate(-1471.005 -1198.921)">
    <g id="Group_150" data-name="Group 150">
      <path id="Path_365" data-name="Path 365" d="M1508.1,1213.88c-.482,0-.877.008-.877.012s-.254-.3-.565-.664l-3.878-4.674a2.182,2.182,0,0,0-1.447-.672h-28.425v-2.447a.833.833,0,0,1,.833-.83H1506.4c.448,0,.829.007.829.007s.238-.285.532-.634l3.675-4.416a2.019,2.019,0,0,1,1.367-.641h27.911a.829.829,0,0,1,.828.83v14.129Z" fill="#F7901D"/>
      <path id="Path_366" data-name="Path 366" d="M1508.1,1213.88c-.482,0-.877.008-.877.012s-.254-.3-.565-.664l-3.878-4.674a2.182,2.182,0,0,0-1.447-.672h-25.724v-1.789h63.226v7.787Z" fill="#f4f4f4"/>
      <path id="Path_367" data-name="Path 367" d="M1471.878,1207.882h29.46a2.182,2.182,0,0,1,1.447.672l3.878,4.674c.311.365.565.668.565.664s.4-.012.877-.012h34.466a.879.879,0,0,1,.873.881v43.758a.877.877,0,0,1-.873.877h-70.693a.878.878,0,0,1-.873-.877v-49.758A.879.879,0,0,1,1471.878,1207.882Z" fill="#F7901D"/>
    </g>
    <g id="Group_152" data-name="Group 152">
      <path id="Path_368" data-name="Path 368" d="M1524.849,1237.905a17.622,17.622,0,1,1-17.632-17.623A17.628,17.628,0,0,1,1524.849,1237.905Z" fill="#f4f4f4"/>
      <g id="Group_151" data-name="Group 151">
        <path id="Path_369" data-name="Path 369" d="M1514.816,1236.438H1499.5v3.061h15.321Z" fill="#F7901D"/>
      </g>
    </g>
  </g>
</svg>