<svg xmlns="http://www.w3.org/2000/svg" width="12" height="12" viewBox="0 0 12 12">
  <path id="Subtraction_1" data-name="Subtraction 1" d="M6,12a1.121,1.121,0,0,1-1.117-.878,1.15,1.15,0,0,0-1.715-.711,1.144,1.144,0,0,1-.6.175A1.182,1.182,0,0,1,1.558,9.98a1.11,1.11,0,0,1,.03-1.149,1.149,1.149,0,0,0-.71-1.715,1.149,1.149,0,0,1,0-2.233,1.15,1.15,0,0,0,.711-1.715,1.11,1.11,0,0,1-.03-1.149,1.182,1.182,0,0,1,1.008-.606,1.144,1.144,0,0,1,.6.175A1.148,1.148,0,0,0,4.883.878a1.149,1.149,0,0,1,2.233,0,1.152,1.152,0,0,0,.677.791,1.143,1.143,0,0,0,.44.087,1.15,1.15,0,0,0,.6-.168,1.144,1.144,0,0,1,.6-.175,1.182,1.182,0,0,1,1.008.606,1.11,1.11,0,0,1-.03,1.149,1.149,1.149,0,0,0,.71,1.715,1.149,1.149,0,0,1,0,2.233,1.15,1.15,0,0,0-.711,1.715,1.11,1.11,0,0,1,.03,1.149,1.182,1.182,0,0,1-1.008.606,1.144,1.144,0,0,1-.6-.175,1.149,1.149,0,0,0-1.715.71A1.121,1.121,0,0,1,6,12ZM6,4A2,2,0,1,0,8,6,2,2,0,0,0,6,4Z" transform="translate(0 0)" fill="#fff"/>
</svg>
